Coordinates
version=1
nRows=7
nColumns=63
inDegrees=yes

Units are S.I. units (second, meters, Newtons, ...)
If the header above contains a line with 'inDegrees', this indicates whether rotational values are in degrees (yes) or radians (no).

endheader
time	pelvis_tilt	pelvis_list	pelvis_rotation	pelvis_tx	pelvis_ty	pelvis_tz	hip_flexion_r	hip_adduction_r	hip_rotation_r	knee_angle_r	knee_angle_r_beta	ankle_angle_r	subtalar_angle_r	mtp_angle_r	hip_flexion_l	hip_adduction_l	hip_rotation_l	knee_angle_l	knee_angle_l_beta	ankle_angle_l	subtalar_angle_l	mtp_angle_l	L5_S1_Flex_Ext	L5_S1_Lat_Bending	L5_S1_axial_rotation	L4_L5_Flex_Ext	L4_L5_Lat_Bending	L4_L5_axial_rotation	L3_L4_Flex_Ext	L3_L4_Lat_Bending	L3_L4_axial_rotation	L2_L3_Flex_Ext	L2_L3_Lat_Bending	L2_L3_axial_rotation	L1_L2_Flex_Ext	L1_L2_Lat_Bending	L1_L2_axial_rotation	L1_T12_Flex_Ext	L1_T12_Lat_Bending	L1_T12_axial_rotation	Abs_r3	Abs_r2	Abs_r1	Abs_t1	Abs_t2	neck_flexion	neck_bending	neck_rotation	arm_flex_r	arm_add_r	arm_rot_r	elbow_flex_r	pro_sup_r	wrist_flex_r	wrist_dev_r	arm_flex_l	arm_add_l	arm_rot_l	elbow_flex_l	pro_sup_l	wrist_flex_l	wrist_dev_l
      2.36666667	     -2.24375995	      0.32376856	     86.87117582	      0.26841145	      0.83224491	      0.78989627	     -4.40483715	     -2.12292910	     -3.04087478	      0.71467325	      0.01247340	     26.39666609	      8.84059622	      0.00000000	      0.74930973	      3.33247888	      4.72605646	      6.97632709	      0.12175988	     28.10480581	     -8.31374929	      0.00000000	      0.07562072	     -0.80590898	     -0.39445222	      0.14043524	     -1.07185894	     -0.41910549	      0.12423728	     -1.95948710	     -0.41910549	      0.08642692	     -1.95948710	     -0.34514570	      0.07022140	     -1.64340959	     -0.32049243	      0.04320968	     -1.24835301	     -0.29583917	      0.54015125	     -9.11660357	     -2.19382493	      0.00000000	      0.00000000	     13.40957624	     -3.42724331	    -21.58912219	    128.56319156	    -60.21618474	     62.91149790	     80.24027519	     80.25096836	     11.82698036	      1.90055560	     -0.91934845	    -19.46684074	      8.08087245	     42.10931300	     87.37439414	     -8.68929444	     -7.78009007
      2.38333333	     -2.06061431	      0.30151264	     86.87209200	      0.26812858	      0.83169419	      0.78997671	     -4.42290827	     -1.95099699	     -2.49736908	      0.70371131	      0.01228208	     26.26318055	      7.88790598	      0.00000000	      0.81355470	      3.19580700	      5.07077011	      7.42247810	      0.12954668	     27.88309356	     -8.72751139	      0.00000000	      0.05967596	     -0.79648241	     -0.67019360	      0.11082422	     -1.05932160	     -0.71208070	      0.09804163	     -1.93656732	     -0.71208070	      0.06820365	     -1.93656732	     -0.58641940	      0.05541510	     -1.62418692	     -0.54453230	      0.03409884	     -1.23375125	     -0.50264520	      0.42625941	     -9.00996828	     -3.72741577	      0.00000000	      0.00000000	     16.24403544	     -1.44073592	    -17.74121005	    129.05616473	    -58.92018461	     66.10819671	     80.62944677	     74.12620402	     13.95485429	     -3.54146200	     -2.57168597	    -18.98999585	      4.85563935	     43.70418632	     87.32012033	     -8.52989312	     -7.57925043
      2.40000000	     -1.86212536	      0.22751106	     86.98272889	      0.26761043	      0.83098257	      0.79007031	     -4.38331987	     -1.75720342	     -1.89931289	      0.73484168	      0.01282541	     25.96343520	      6.60557652	      0.00000000	      0.95319818	      3.05931332	      5.63556930	      7.93057280	      0.13841461	     27.53852428	     -9.39113552	      0.00000000	      0.04202722	     -0.78821442	     -0.86776682	      0.07804876	     -1.04832518	     -0.92200225	      0.06904652	     -1.91646455	     -0.92200225	      0.04803291	     -1.91646455	     -0.75929597	      0.03902648	     -1.60732685	     -0.70506054	      0.02401436	     -1.22094414	     -0.65082511	      0.30019625	     -8.91643920	     -4.82625872	      0.00000000	      0.00000000	     18.49788851	     -0.12434681	    -15.25082801	    130.18391949	    -58.08211458	     70.25497578	     81.27561340	     70.23345450	     15.72123647	     -9.35258746	     -3.70725064	    -18.48530602	      2.40082229	     44.90881022	     87.30652253	     -8.18930548	     -7.40435886
      2.41666667	     -1.69849302	      0.14629172	     87.19685802	      0.26706090	      0.83022146	      0.79019727	     -4.32443531	     -1.58832102	     -1.56647680	      0.81948093	      0.01430264	     25.73722101	      5.57274501	      0.00000000	      1.17046635	      2.95171296	      6.17220976	      8.54813100	      0.14919303	     27.22803253	    -10.02784028	      0.00000000	      0.02533223	     -0.79214945	     -0.97098280	      0.04704448	     -1.05355876	     -1.03166923	      0.04161832	     -1.92603216	     -1.03166923	      0.02895221	     -1.92603216	     -0.84960995	      0.02352351	     -1.61535115	     -0.78892353	      0.01447484	     -1.22703949	     -0.72823710	      0.18094559	     -8.96095297	     -5.40031506	      0.00000000	      0.00000000	     20.12481599	      0.52412594	    -14.18703332	    131.31288880	    -57.92881914	     74.12517073	     82.72444323	     70.01211194	     16.64460682	    -13.30143842	     -4.31287453	    -18.14025604	      1.17973466	     45.59942889	     87.20162753	     -8.14426689	     -7.59337221
      2.43333333	     -1.36924827	      0.11896716	     87.25774294	      0.26619634	      0.82945327	      0.79016250	     -4.31857171	     -1.26850287	     -0.05009594	      0.92478113	      0.01614048	     25.17513947	      3.08370060	      0.00000000	      1.15421258	      2.76145375	      7.43565477	      8.81384864	      0.15383068	     26.66676067	    -11.90314778	      0.00000000	      0.01100046	     -0.75964186	     -0.85331457	      0.02042896	     -1.01032367	     -0.90664673	      0.01807266	     -1.84699322	     -0.90664673	      0.01257243	     -1.84699322	     -0.74665025	      0.01021503	     -1.54906168	     -0.69331809	      0.00628566	     -1.17668524	     -0.63998593	      0.07857521	     -8.59322066	     -4.74587967	      0.00000000	      0.00000000	     20.73558459	     -0.68544632	    -14.29516287	    134.75506944	    -58.72570458	     81.41029008	     85.00772782	     70.89044811	     13.80403828	    -17.49566622	     -3.89965201	    -17.82001439	      1.99994663	     45.23621600	     87.16092845	     -8.07008503	     -7.92062936
      2.45000000	     -1.21779406	      0.14079931	     87.39743558	      0.26570881	      0.82893520	      0.79014979	     -4.30088201	     -1.12314333	     -0.19639590	      1.15970328	      0.02024064	     25.05406193	      2.83519537	      0.00000000	      1.20269671	      2.65856647	      7.71557819	      9.19013166	      0.16039806	     26.61478082	    -12.22900877	      0.00000000	      0.00553343	     -0.76216078	     -0.72617986	      0.01027614	     -1.01367384	     -0.77156610	      0.00909088	     -1.85311772	     -0.77156610	      0.00632416	     -1.85311772	     -0.63540738	      0.00513835	     -1.55419826	     -0.59002114	      0.00316180	     -1.18058705	     -0.54463490	      0.03952476	     -8.62171516	     -4.03879453	      0.00000000	      0.00000000	     20.66081337	     -1.78175289	    -14.93668152	    136.92118340	    -59.84172965	     86.69240919	     87.62990669	     73.67169909	     12.27424083	    -18.76648950	     -3.52305872	    -17.70218026	      3.11433857	     44.70282343	     87.03561062	     -8.44123917	     -8.68102313
      2.46666667	     -1.08979173	      0.20849951	     87.55236534	      0.26519901	      0.82857353	      0.79018902	     -4.23917416	     -1.01390735	     -1.06323479	      1.55786198	      0.02718982	     25.19213360	      3.58246825	      0.00000000	      1.24890995	      2.55774497	      7.68466802	      9.53350244	      0.16639101	     26.91913950	    -11.99504458	      0.00000000	      0.00341746	     -0.76959012	     -0.56221578	      0.00634657	     -1.02355487	     -0.59735427	      0.00561455	     -1.87118143	     -0.59735427	      0.00390582	     -1.87118143	     -0.49193881	      0.00317346	     -1.56934818	     -0.45680032	      0.00195274	     -1.19209510	     -0.42166184	      0.02441061	     -8.70575741	     -3.12687553	      0.00000000	      0.00000000	     19.80659345	     -3.21871180	    -15.97410905	    139.16767067	    -61.36740092	     92.11646292	     90.64709244	     76.47523107	     10.62256861	    -18.08953413	     -2.96310427	    -17.73700983	      4.85171367	     43.86022959	     86.94274547	     -8.86223977	     -9.66787331
